<svg width="584" height="584" viewBox="0 0 584 584" fill="none" xmlns="http://www.w3.org/2000/svg">
<path d="M464.922 82.083C413.923 31.08 346.122 3 274 3C201.878 3 134.077 31.0845 83.083 82.083C32.08 133.077 4 200.883 4 273C4 345.122 32.0845 412.923 83.083 463.917C134.077 514.92 201.883 543 274 543C346.117 543 413.923 514.916 464.917 463.917C515.92 412.923 544 345.117 544 273C544 200.878 515.916 133.077 464.922 82.083V82.083Z" stroke="#CCCCCC" stroke-width="2"/>
<path d="M504.743 244.172C502.192 238.558 499.781 233.251 498.794 228.273C497.752 223.017 497.933 217.037 498.129 210.706C498.431 201.018 498.743 191.011 494.787 181.518C490.756 171.831 483.351 164.924 476.192 158.25C471.621 153.986 467.302 149.962 464.407 145.652C461.465 141.276 459.352 135.718 457.113 129.836C453.655 120.747 450.085 111.347 442.712 104.009C435.344 96.6719 425.909 93.1167 416.781 89.6682C410.87 87.4433 405.294 85.3343 400.9 82.4049C396.571 79.5172 392.526 75.2204 388.244 70.6687C381.542 63.5352 374.606 56.1607 364.878 52.1466C355.341 48.2067 345.287 48.5173 335.564 48.8139C329.206 49.0086 323.197 49.194 317.919 48.1558C312.92 47.1685 307.59 44.7721 301.954 42.232C293.389 38.3756 283.68 34 273.002 34C262.325 34 252.615 38.3709 244.051 42.232C238.414 44.7721 233.085 47.1685 228.086 48.1511C222.808 49.194 216.803 49.0086 210.445 48.8139C200.717 48.5127 190.668 48.2067 181.131 52.142C171.408 56.156 164.472 63.5305 157.765 70.664C153.483 75.2111 149.443 79.5172 145.119 82.3956C140.72 85.3297 135.139 87.434 129.237 89.6589C120.105 93.1028 110.666 96.6626 103.302 104C95.9341 111.337 92.3594 120.733 88.9011 129.827C86.6623 135.709 84.5491 141.262 81.6028 145.638C78.7076 149.948 74.3882 153.976 69.8175 158.241C62.6588 164.915 55.2487 171.822 51.2179 181.509C47.2615 191.006 47.5734 201.018 47.8759 210.701C48.0714 217.033 48.2529 223.017 47.2103 228.273C46.2189 233.251 43.8125 238.558 41.2618 244.172C37.3939 252.7 33 262.369 33 273.002C33 283.635 37.3892 293.304 41.2665 301.833C43.8172 307.446 46.2236 312.753 47.2103 317.732C48.2576 322.988 48.0714 328.972 47.8759 335.299C47.5734 344.986 47.2662 354.993 51.2179 364.491C55.2487 374.174 62.6541 381.08 69.8128 387.759C74.3836 392.019 78.703 396.047 81.5981 400.353C84.5398 404.733 86.6529 410.286 88.8918 416.168C92.3501 425.262 95.9248 434.663 103.293 441.995C110.656 449.333 120.096 452.893 129.223 456.336C135.135 458.566 140.711 460.67 145.105 463.6C149.433 466.487 153.478 470.784 157.756 475.336C164.463 482.469 171.398 489.844 181.122 493.858C190.663 497.798 200.717 497.492 210.436 497.191C216.799 496.996 222.803 496.811 228.086 497.853C233.085 498.836 238.41 501.237 244.051 503.773C252.615 507.629 262.325 512 273.002 512C283.68 512 293.389 507.634 301.954 503.773C307.59 501.233 312.92 498.836 317.919 497.853C323.197 496.811 329.206 496.996 335.559 497.191C345.287 497.492 355.337 497.798 364.869 493.863C374.597 489.849 381.532 482.474 388.235 475.345C392.517 470.793 396.562 466.492 400.886 463.609C405.284 460.68 410.861 458.575 416.767 456.346C425.899 452.902 435.339 449.342 442.702 442.005C450.071 434.672 453.645 425.272 457.104 416.182C459.342 410.296 461.456 404.743 464.397 400.367C467.297 396.056 471.612 392.028 476.183 387.769C483.346 381.089 490.751 374.183 494.782 364.5C498.738 354.998 498.431 344.986 498.133 335.308C497.933 328.972 497.747 322.992 498.794 317.732C499.781 312.758 502.192 307.451 504.738 301.833C508.611 293.304 513 283.635 513 273.002C513 262.369 508.615 252.7 504.743 244.172V244.172Z" stroke="#CCCCCC" stroke-width="2"/>
<path d="M217.674 197.312C238.057 197.312 254.638 180.731 254.638 160.349C254.638 139.971 238.057 123.39 217.674 123.39C197.292 123.39 180.711 139.971 180.711 160.349C180.711 180.731 197.292 197.312 217.674 197.312ZM414.225 226.064C414.225 205.682 397.644 189.101 377.261 189.101C356.879 189.101 340.298 205.682 340.298 226.064C340.298 246.442 356.879 263.028 377.261 263.028C397.644 263.028 414.225 246.442 414.225 226.064ZM320.936 358.073C300.558 358.073 283.972 374.654 283.972 395.036C283.972 415.419 300.558 432 320.936 432C341.318 432 357.899 415.419 357.899 395.036C357.899 374.654 341.318 358.073 320.936 358.073ZM217.088 310.55C217.088 290.168 200.506 273.587 180.124 273.587C159.742 273.587 143.165 290.168 143.165 310.55C143.165 330.933 159.746 347.514 180.124 347.514C200.506 347.514 217.088 330.933 217.088 310.55ZM310.964 291.775C310.955 284.464 308.047 277.455 302.877 272.285C297.706 267.116 290.697 264.209 283.385 264.202C276.075 264.21 269.066 267.118 263.897 272.287C258.728 277.456 255.82 284.465 255.812 291.775C255.82 299.086 258.728 306.094 263.897 311.263C269.066 316.433 276.075 319.34 283.385 319.349C290.697 319.342 297.706 316.434 302.877 311.265C308.047 306.096 310.955 299.086 310.964 291.775V291.775ZM320.936 169.152C328.247 169.145 335.257 166.237 340.427 161.068C345.597 155.899 348.506 148.889 348.514 141.578C348.507 134.266 345.599 127.256 340.429 122.085C335.258 116.915 328.248 114.007 320.936 114C313.625 114.008 306.615 116.917 301.446 122.087C296.276 127.257 293.369 134.267 293.362 141.578C293.37 148.889 296.278 155.897 301.447 161.066C306.617 166.236 313.625 169.143 320.936 169.152V169.152ZM405.422 292.362C398.111 292.37 391.103 295.278 385.934 300.447C380.764 305.617 377.857 312.625 377.848 319.936C377.855 327.247 380.763 334.257 385.932 339.427C391.101 344.597 398.111 347.506 405.422 347.514C412.734 347.507 419.744 344.599 424.915 339.429C430.085 334.258 432.993 327.248 433 319.936C432.992 312.625 430.083 305.615 424.913 300.446C419.743 295.276 412.733 292.369 405.422 292.362V292.362ZM217.674 376.848C210.364 376.857 203.355 379.764 198.186 384.934C193.017 390.103 190.109 397.111 190.101 404.422C190.108 411.733 193.015 418.743 198.185 423.913C203.354 429.083 210.363 431.992 217.674 432C224.986 431.993 231.997 429.085 237.167 423.915C242.338 418.744 245.245 411.734 245.253 404.422C245.244 397.111 242.336 390.101 237.166 384.932C231.995 379.763 224.986 376.855 217.674 376.848V376.848ZM142.578 244.253C149.889 244.244 156.899 241.336 162.068 236.166C167.237 230.995 170.145 223.986 170.152 216.674C170.143 209.364 167.236 202.355 162.066 197.186C156.897 192.017 149.889 189.109 142.578 189.101C135.267 189.108 128.257 192.015 123.087 197.185C117.917 202.354 115.008 209.363 115 216.674C115.007 223.986 117.915 230.997 123.085 236.167C128.256 241.338 135.266 244.245 142.578 244.253V244.253Z" stroke="#CCCCCC" stroke-width="2"/>
<path d="M239.826 218.628C237.758 217.679 235.401 217.57 233.253 218.322C231.105 219.074 229.335 220.63 228.316 222.66C227.298 224.69 227.11 227.035 227.794 229.2C228.478 231.365 229.98 233.18 231.982 234.261L250.693 243.589C252.765 244.559 255.135 244.683 257.297 243.935C259.459 243.187 261.243 241.626 262.266 239.585C263.29 237.544 263.473 235.185 262.777 233.012C262.08 230.838 260.559 229.022 258.538 227.951L239.826 218.623V218.628ZM292.026 216.534C294.27 216.534 296.515 215.682 298.224 213.977L307.58 204.65C308.425 203.845 309.1 202.88 309.565 201.811C310.031 200.742 310.278 199.591 310.291 198.426C310.304 197.261 310.084 196.105 309.643 195.026C309.202 193.947 308.549 192.967 307.723 192.143C306.896 191.319 305.913 190.668 304.831 190.229C303.749 189.789 302.589 189.569 301.421 189.582C300.252 189.596 299.098 189.842 298.026 190.306C296.954 190.77 295.986 191.443 295.179 192.286L285.823 201.614C284.599 202.837 283.766 204.395 283.429 206.09C283.093 207.785 283.267 209.541 283.931 211.137C284.594 212.733 285.717 214.098 287.158 215.058C288.599 216.019 290.292 216.532 292.026 216.534V216.534ZM260.814 341.491L251.458 332.163C250.647 331.335 249.679 330.675 248.611 330.222C247.542 329.769 246.394 329.532 245.233 329.525C244.072 329.518 242.921 329.741 241.847 330.181C240.773 330.621 239.797 331.269 238.976 332.088C238.156 332.906 237.506 333.879 237.065 334.95C236.624 336.021 236.401 337.169 236.409 338.327C236.416 339.484 236.654 340.629 237.109 341.694C237.563 342.759 238.226 343.724 239.057 344.532L248.413 353.86C250.122 355.564 252.371 356.416 254.611 356.416C256.345 356.414 258.039 355.901 259.48 354.94C260.921 353.979 262.044 352.613 262.707 351.016C263.37 349.419 263.544 347.662 263.206 345.967C262.869 344.272 262.034 342.714 260.809 341.491H260.814ZM344.994 294.865C344.187 294.023 343.219 293.35 342.147 292.886C341.075 292.421 339.921 292.175 338.752 292.162C337.584 292.149 336.424 292.368 335.342 292.808C334.26 293.248 333.277 293.899 332.45 294.723C331.624 295.547 330.971 296.527 330.53 297.606C330.089 298.685 329.868 299.841 329.882 301.006C329.895 302.171 330.142 303.322 330.607 304.391C331.073 305.459 331.748 306.424 332.593 307.229L341.949 316.557C343.658 318.261 345.907 319.113 348.147 319.113C349.881 319.112 351.575 318.598 353.016 317.637C354.457 316.676 355.58 315.311 356.244 313.714C356.907 312.117 357.08 310.36 356.743 308.665C356.405 306.969 355.571 305.412 354.346 304.189L344.99 294.865H344.994ZM447.113 246.598L428.405 255.926C427.346 256.422 426.397 257.124 425.615 257.991C424.832 258.858 424.231 259.873 423.847 260.975C423.464 262.077 423.305 263.244 423.381 264.409C423.457 265.573 423.766 266.71 424.289 267.753C424.812 268.797 425.54 269.725 426.429 270.484C427.317 271.243 428.35 271.816 429.464 272.171C430.579 272.527 431.753 272.656 432.919 272.551C434.084 272.447 435.217 272.111 436.25 271.564L454.957 262.236C456.016 261.74 456.965 261.038 457.748 260.171C458.531 259.304 459.132 258.289 459.515 257.187C459.899 256.085 460.057 254.917 459.982 253.753C459.906 252.589 459.597 251.452 459.074 250.409C458.55 249.365 457.823 248.437 456.934 247.678C456.045 246.919 455.013 246.345 453.899 245.99C452.784 245.635 451.609 245.506 450.444 245.61C449.279 245.715 448.146 246.051 447.113 246.598V246.598ZM120.512 276.214C118.867 274.575 116.637 273.654 114.311 273.654C111.986 273.654 109.755 274.575 108.111 276.214L98.7548 285.542C97.9007 286.345 97.2168 287.31 96.7438 288.381C96.2708 289.452 96.0182 290.607 96.0009 291.777C95.9837 292.947 96.2022 294.109 96.6436 295.193C97.0849 296.278 97.74 297.263 98.5701 298.09C99.4003 298.917 100.388 299.57 101.476 300.01C102.564 300.449 103.729 300.667 104.903 300.649C106.077 300.632 107.235 300.379 108.309 299.907C109.383 299.435 110.351 298.753 111.156 297.901L120.512 288.574C122.154 286.934 123.077 284.711 123.077 282.394C123.077 280.076 122.154 277.854 120.512 276.214V276.214ZM257.764 111.393C259.473 113.097 261.722 113.954 263.967 113.954C265.701 113.952 267.395 113.439 268.836 112.478C270.277 111.517 271.4 110.152 272.063 108.555C272.726 106.958 272.9 105.201 272.562 103.505C272.224 101.81 271.39 100.252 270.165 99.0294L260.809 89.7016C260.002 88.8594 259.033 88.1866 257.961 87.7228C256.889 87.259 255.735 87.0134 254.566 87.0005C253.398 86.9877 252.238 87.2078 251.156 87.6479C250.074 88.0881 249.091 88.7394 248.265 89.5636C247.439 90.3878 246.787 91.3682 246.346 92.4474C245.905 93.5265 245.685 94.6826 245.699 95.8477C245.713 97.0128 245.96 98.1634 246.426 99.2319C246.892 100.3 247.568 101.265 248.413 102.07L257.769 111.398L257.764 111.393ZM263.962 422.859C261.637 422.86 259.407 423.782 257.763 425.422C256.119 427.062 255.196 429.285 255.196 431.604V440.932C255.248 443.216 256.194 445.39 257.833 446.987C259.472 448.584 261.673 449.479 263.965 449.479C266.257 449.479 268.457 448.584 270.096 446.987C271.735 445.39 272.682 443.216 272.734 440.932V431.604C272.734 430.455 272.507 429.318 272.066 428.257C271.625 427.196 270.979 426.232 270.165 425.42C269.35 424.608 268.383 423.964 267.319 423.525C266.255 423.085 265.114 422.859 263.962 422.859V422.859ZM388.715 369.47L379.359 378.798C378.505 379.601 377.821 380.566 377.348 381.637C376.875 382.708 376.622 383.863 376.605 385.033C376.588 386.204 376.807 387.365 377.248 388.45C377.689 389.534 378.344 390.519 379.174 391.346C380.005 392.174 380.993 392.826 382.081 393.266C383.168 393.706 384.334 393.923 385.507 393.906C386.681 393.888 387.839 393.636 388.913 393.164C389.987 392.692 390.955 392.01 391.76 391.158L401.116 381.83C401.97 381.027 402.654 380.062 403.127 378.991C403.6 377.92 403.853 376.765 403.87 375.595C403.887 374.425 403.668 373.263 403.227 372.179C402.786 371.094 402.131 370.109 401.301 369.282C400.47 368.454 399.482 367.802 398.394 367.362C397.307 366.922 396.141 366.705 394.968 366.723C393.794 366.74 392.636 366.992 391.562 367.464C390.488 367.936 389.52 368.619 388.715 369.47V369.47ZM148.57 369.47C147.763 368.628 146.795 367.955 145.723 367.491C144.651 367.026 143.497 366.78 142.328 366.767C141.16 366.754 140 366.974 138.918 367.413C137.836 367.853 136.853 368.504 136.026 369.328C135.2 370.152 134.547 371.132 134.106 372.211C133.665 373.29 133.445 374.446 133.458 375.611C133.471 376.776 133.718 377.927 134.184 378.996C134.649 380.064 135.324 381.029 136.169 381.834L145.525 391.158C147.234 392.862 149.483 393.718 151.723 393.718C153.457 393.717 155.151 393.203 156.592 392.242C158.033 391.281 159.156 389.916 159.82 388.319C160.483 386.722 160.657 384.965 160.319 383.27C159.981 381.574 159.147 380.017 157.922 378.794L148.57 369.466V369.47ZM379.359 148.696C381.068 150.4 383.317 151.257 385.562 151.257C387.295 151.255 388.99 150.741 390.431 149.78C391.872 148.819 392.995 147.454 393.658 145.857C394.321 144.26 394.495 142.503 394.157 140.808C393.819 139.112 392.985 137.555 391.76 136.332L382.404 127.004C381.599 126.153 380.631 125.471 379.557 124.999C378.482 124.527 377.324 124.276 376.15 124.258C374.977 124.241 373.812 124.459 372.724 124.899C371.636 125.339 370.648 125.992 369.818 126.82C368.989 127.648 368.334 128.633 367.893 129.717C367.452 130.802 367.234 131.964 367.252 133.134C367.269 134.304 367.522 135.459 367.996 136.53C368.469 137.6 369.153 138.566 370.008 139.368L379.364 148.696H379.359ZM413.62 188.559C415.944 188.551 418.17 187.627 419.813 185.989C421.457 184.35 422.383 182.131 422.392 179.814C422.383 177.497 421.457 175.278 419.813 173.64C418.17 172.002 415.944 171.078 413.62 171.069C411.297 171.078 409.071 172.002 407.427 173.64C405.784 175.278 404.858 177.497 404.849 179.814C404.858 182.131 405.784 184.35 407.427 185.989C409.071 187.627 411.297 188.551 413.62 188.559V188.559ZM304.535 238.916C302.892 240.556 301.967 242.778 301.962 245.096C301.97 247.413 302.897 249.632 304.54 251.27C306.183 252.908 308.409 253.832 310.733 253.841C313.057 253.832 315.283 252.908 316.926 251.27C318.569 249.632 319.496 247.413 319.504 245.096C319.496 242.779 318.569 240.56 316.926 238.921C315.283 237.283 313.057 236.359 310.733 236.351C308.43 236.351 306.163 237.284 304.535 238.916ZM192.296 248.239C190.651 249.878 189.726 252.101 189.723 254.419C189.725 256.738 190.65 258.961 192.294 260.6C193.939 262.24 196.168 263.162 198.494 263.164C200.817 263.155 203.042 262.23 204.684 260.592C206.326 258.954 207.252 256.735 207.26 254.419C207.252 252.102 206.325 249.883 204.682 248.245C203.039 246.607 200.813 245.683 198.489 245.674C196.177 245.674 193.919 246.612 192.296 248.239V248.239ZM151.723 160.58C154.046 160.572 156.272 159.648 157.915 158.011C159.558 156.374 160.485 154.155 160.495 151.84C160.492 149.521 159.567 147.298 157.923 145.659C156.279 144.019 154.049 143.097 151.723 143.095C149.398 143.097 147.168 144.019 145.524 145.659C143.88 147.298 142.955 149.521 142.952 151.84C142.961 154.156 143.887 156.376 145.53 158.014C147.174 159.652 149.4 160.576 151.723 160.584V160.58ZM295.179 332.172C293.539 333.812 292.616 336.032 292.61 338.348C292.619 340.664 293.545 342.884 295.188 344.522C296.832 346.16 299.058 347.084 301.381 347.092C303.706 347.089 305.935 346.166 307.578 344.527C309.221 342.888 310.146 340.665 310.148 338.348C310.14 336.031 309.213 333.811 307.57 332.173C305.927 330.535 303.701 329.611 301.377 329.603C299.074 329.603 296.807 330.54 295.183 332.172H295.179ZM301.377 441.51C299.053 441.519 296.827 442.443 295.184 444.081C293.541 445.719 292.614 447.938 292.606 450.255C292.608 452.574 293.533 454.797 295.177 456.436C296.822 458.076 299.051 458.998 301.377 459C303.702 458.998 305.932 458.076 307.576 456.436C309.221 454.797 310.146 452.574 310.148 450.255C310.14 447.938 309.213 445.719 307.57 444.081C305.927 442.443 303.701 441.519 301.377 441.51ZM123.665 320.279C121.341 320.288 119.115 321.212 117.472 322.85C115.829 324.488 114.902 326.707 114.894 329.024C114.902 331.341 115.829 333.56 117.472 335.199C119.115 336.837 121.341 337.761 123.665 337.769C125.988 337.761 128.215 336.837 129.858 335.199C131.501 333.56 132.428 331.341 132.436 329.024C132.428 326.707 131.501 324.488 129.858 322.85C128.215 321.212 125.988 320.288 123.665 320.279V320.279Z" fill="#CCCCCC"/>
</svg>
